<svg width="35" height="35" viewBox="0 0 35 35" fill="none" xmlns="http://www.w3.org/2000/svg">
<g clip-path="url(#clip0_573_12)">
<path d="M26.1392 16.6994C26.2252 17.6167 26.1727 17.939 25.8942 18.219C25.4742 18.639 24.9375 18.674 24.481 18.3123C24.2958 18.1665 24.0888 17.554 24.0115 16.9254C23.8397 15.587 23.2881 14.3259 22.4219 13.2913C21.5906 12.2821 19.4979 11.2394 18.3065 11.2394C17.3556 11.2394 16.5579 10.7129 16.5579 10.0858C16.5579 9.69792 17.2973 8.93375 17.6721 8.93375C17.8238 8.93375 18.5033 9.03729 19.1815 9.16125C22.89 9.84667 25.7906 12.9894 26.1392 16.6994ZM35 17.5729C35 27.0973 34.9883 27.389 34.58 27.7958C34.1863 28.1896 33.8815 28.2144 29.5444 28.2144H24.9288L23.4675 28.9494C22.664 29.3533 21.4171 29.8244 20.6952 29.9935C19.0575 30.38 16.2167 30.3683 14.5644 29.9702C13.8731 29.8025 12.6627 29.3387 11.8752 28.9392L10.4446 28.2129H5.57084C1.11271 28.2129 0.665002 28.1794 0.348544 27.8294C0.0350019 27.4852 1.91561e-06 26.4615 1.91561e-06 17.4898C1.91561e-06 6.37146 -0.0787479 6.94604 1.46709 6.80167C2.06646 6.74479 2.21375 6.63833 2.27354 6.20958C2.39896 5.29813 2.67313 5.16104 4.38521 5.16104C6.15417 5.16104 6.49688 5.3375 6.49688 6.25042V6.83667H8.39563C10.1675 6.83667 10.4096 6.78271 12.0108 6.02292C14.2202 4.97583 15.3271 4.72208 17.71 4.72208C20.1075 4.72208 21.2231 4.97729 23.3756 6.02146L25.06 6.83813H29.7033C34.2635 6.83813 34.3525 6.84688 34.6733 7.30333C34.9577 7.70875 35 9.03875 35 17.5729ZM3.77271 6.62813C3.77271 6.74333 4.05563 6.83813 4.40125 6.83813C4.74688 6.83813 5.02979 6.74333 5.02979 6.62813C5.02979 6.51292 4.74688 6.41813 4.40125 6.41813C4.05563 6.41813 3.77271 6.51292 3.77271 6.62813ZM7.96396 26.0152C7.96396 25.9583 7.65771 25.5106 7.28292 25.0192C4.20875 20.9927 4.09792 14.7773 7.02042 10.4038L7.93334 9.03875L5.30542 8.98042C3.54959 8.93958 2.58271 9.00083 2.38729 9.16271C2.14813 9.36104 2.09563 10.8252 2.09563 17.3556C2.09563 22.4365 2.17438 25.4538 2.31292 25.7133C2.50979 26.0823 2.77521 26.1187 5.24709 26.1187C6.74188 26.1187 7.96396 26.0721 7.96396 26.0152ZM27.1892 12.6029C26.4352 11.0965 24.2346 8.85063 22.7252 8.04563C19.7094 6.43854 15.7121 6.43854 12.6963 8.04563C10.9958 8.95271 8.925 11.1475 8.07334 12.9456C7.46984 14.2047 7.12142 15.5708 7.04815 16.9651C6.97487 18.3594 7.17819 19.7545 7.64639 21.0699C8.11459 22.3853 8.83842 23.595 9.77619 24.6295C10.714 25.664 11.8471 26.5027 13.1104 27.0973C15.3446 28.1633 17.3848 28.4419 19.724 28.0015C21.2873 27.7069 23.5885 26.5635 24.8194 25.4683C28.3967 22.2892 29.3752 16.9735 27.1892 12.6029ZM32.6448 17.4067L32.5894 9.03729L29.9921 8.9775L27.3948 8.91917L27.7404 9.3975C31.2681 14.2887 31.5044 19.9252 28.3777 24.5875C27.8702 25.3444 27.4546 25.9977 27.4546 26.04C27.4546 26.1975 32.1796 26.1042 32.4348 25.9423C32.6419 25.8125 32.6871 23.9633 32.6448 17.4067Z" fill="white"/>
<circle cx="17.5" cy="17.5" r="8.83333" fill="white"/>
<g clip-path="url(#clip1_573_12)">
<path d="M13.2405 24.856C7.58668 21.5965 7.58668 13.4035 13.2405 10.1439C18.8944 6.88442 26.0001 10.981 26.0001 17.5C26.0001 24.019 18.8944 28.1156 13.2405 24.856ZM24.3717 17.5C24.3717 12.2299 18.6273 8.91821 14.0566 11.5532C9.486 14.1883 9.48596 20.8117 14.0566 23.4467C18.6273 26.0817 24.3717 22.7701 24.3717 17.5ZM21.9503 21.6739L20.2953 20.1655L20.4242 20.0243L22.0792 21.5326L21.9503 21.6739ZM12.9397 21.5533L12.8151 21.4084L14.5137 19.9498L14.6383 20.0947L12.9397 21.5534V21.5533ZM22.3299 21.2281L20.538 19.8855L20.6527 19.7323L22.4446 21.0749L22.3299 21.2281ZM12.5409 21.0546L12.4322 20.8973L14.2741 19.624L14.3828 19.7813L12.5409 21.0546ZM22.665 20.748L20.7528 19.5833L20.8522 19.42L22.7644 20.5847L22.665 20.748ZM12.1966 20.5166L12.1049 20.3488L14.0697 19.2752L14.1614 19.443L12.1966 20.5166ZM22.9525 20.238L20.9374 19.2619L21.0207 19.0897L23.0358 20.0658L22.9525 20.238ZM11.9103 19.9458L11.8366 19.7691L13.9029 18.9068L13.9766 19.0835L11.9103 19.9458ZM23.1898 19.7028L21.0904 18.9244L21.1569 18.7451L23.2563 19.5235L23.1898 19.7028V19.7028ZM11.6852 19.3482L11.6305 19.1648L13.7755 18.5231L13.8303 18.7066L11.6852 19.3482ZM23.3747 19.1474L21.2105 18.5737L21.2595 18.3888L23.4236 18.9625L23.3747 19.1474ZM11.5239 18.7301L11.4886 18.5421L13.689 18.1282L13.7244 18.3161L11.5239 18.7301V18.7301ZM23.5057 18.5767L21.2962 18.2132L21.3273 18.0245L23.5367 18.388L23.5057 18.5767ZM11.4281 18.0987L11.4126 17.9081L13.6442 17.7265L13.6597 17.9171L11.4281 18.0987ZM23.5812 17.9963L21.3472 17.8461L21.36 17.6552L23.5939 17.8054L23.5812 17.9963ZM13.6372 17.5134L11.3987 17.4608L11.4032 17.2695L13.6416 17.3221L13.6371 17.5134H13.6372ZM21.3628 17.4757L21.3572 17.2844L23.5952 17.2198L23.6007 17.4111L21.3628 17.4757ZM13.6569 17.1095L11.4363 16.8232L11.4608 16.6334L13.6814 16.9197L13.6569 17.1095V17.1095ZM21.3389 17.0721L21.3134 16.8825L23.5326 16.5843L23.558 16.7739L21.3389 17.0721ZM13.7189 16.7098L11.5404 16.193L11.5844 16.0069L13.7629 16.5237L13.7189 16.7098ZM21.2733 16.6732L21.2281 16.4873L23.4037 15.9587L23.4489 16.1446L21.2733 16.6732V16.6732ZM13.8222 16.3189L11.7095 15.5772L11.7729 15.3967L13.8855 16.1385L13.8222 16.3189ZM21.166 16.2833L21.1018 16.1032L23.2103 15.3501L23.2746 15.5302L21.1661 16.2833H21.166ZM13.9657 15.9409L11.9423 14.9825L12.0241 14.8097L14.0475 15.7681L13.9657 15.9409H13.9657ZM21.0188 15.9068L20.9359 15.7344L22.9542 14.765L23.0372 14.9375L21.0188 15.9068ZM14.148 15.5801L12.2359 14.4154L12.3354 14.252L14.2476 15.4166L14.148 15.5801ZM20.8332 15.5478L20.7327 15.3849L22.6385 14.2098L22.739 14.3727L20.8331 15.5478H20.8332ZM14.3671 15.2402L12.5872 13.882L12.7031 13.7299L14.4831 15.0881L14.3671 15.2402ZM20.6107 15.2101L20.4937 15.0586L22.2664 13.6908L22.3833 13.8423L20.6107 15.2101ZM14.6205 14.9251L12.9922 13.3882L13.1236 13.2491L14.7518 14.786L14.6205 14.9251ZM19.8053 14.4006L19.6491 14.2901L20.9445 12.4637L21.1007 12.5743L19.8053 14.4006ZM19.4687 14.1767L19.3021 14.0829L20.3992 12.1313L20.5658 12.2251L19.4687 14.1767ZM15.7557 14.4874C13.4402 15.8223 13.4402 19.1776 15.7557 20.5125C18.0711 21.8474 20.9812 20.1697 20.9812 17.5C20.9812 14.8302 18.0711 13.1525 15.7557 14.4874ZM17.1438 18.1154C16.6707 17.8427 16.6707 17.1572 17.1438 16.8845C17.6168 16.6118 18.2113 16.9546 18.2113 17.5C18.2113 18.0454 17.6168 18.3882 17.1438 18.1154ZM18.4192 17.0254C17.6079 16.5577 17.6079 15.382 18.4192 14.9143C19.2305 14.4466 20.2502 15.0344 20.2502 15.9699C20.2502 16.9054 19.2306 17.4932 18.4192 17.0254Z" fill="#3154CF"/>
</g>
</g>
<defs>
<clipPath id="clip0_573_12">
<rect width="35" height="35" fill="white"/>
</clipPath>
<clipPath id="clip1_573_12">
<rect width="17" height="17" fill="white" transform="translate(9 9)"/>
</clipPath>
</defs>
</svg>
