<svg width="24" height="24" viewBox="0 0 24 24" fill="none" xmlns="http://www.w3.org/2000/svg">
<path d="M7.19999 21.6L12 10.4L7.19999 21.6ZM6.82239 15.2C6.03378 14.3209 5.59836 13.1811 5.59999 12V11.2C5.59999 9.71484 6.18999 8.29045 7.24019 7.24025C8.29039 6.19005 9.71478 5.60005 11.2 5.60005H12.8C14.2852 5.60005 15.7096 6.19005 16.7598 7.24025C17.81 8.29045 18.4 9.71484 18.4 11.2V12C18.4 13.2731 17.8943 14.494 16.9941 15.3942C16.0939 16.2943 14.873 16.8 13.6 16.8C12.9012 16.8 12.2202 16.58 11.6533 16.1714C11.0865 15.7628 10.6625 15.1862 10.4416 14.5232L10.4 14.4L6.82239 15.2ZM12 23.2C10.5292 23.2 9.07278 22.9104 7.71393 22.3475C6.35509 21.7846 5.12041 20.9597 4.08039 19.9196C3.04038 18.8796 2.21539 17.645 1.65254 16.2861C1.08968 14.9273 0.799988 13.4709 0.799988 12C0.799988 10.5292 1.08968 9.07284 1.65254 7.71399C2.21539 6.35515 3.04038 5.12047 4.08039 4.08045C5.12041 3.04044 6.35509 2.21545 7.71393 1.6526C9.07278 1.08975 10.5292 0.800049 12 0.800049C14.9704 0.800049 17.8192 1.98005 19.9196 4.08045C22.02 6.18086 23.2 9.02962 23.2 12C23.2 14.9705 22.02 17.8192 19.9196 19.9196C17.8192 22.0201 14.9704 23.2 12 23.2Z" stroke="white" stroke-width="1.6"/>
</svg>
